<?xml version="1.0" encoding="utf-8"?>
<!-- Generator: Adobe Illustrator 16.0.2, SVG Export Plug-In . SVG Version: 6.00 Build 0)  -->
<!DOCTYPE svg PUBLIC "-//W3C//DTD SVG 1.1//EN" "http://www.w3.org/Graphics/SVG/1.1/DTD/svg11.dtd">
<svg version="1.1" id="svg3800" xmlns:svg="http://www.w3.org/2000/svg"
	 xmlns="http://www.w3.org/2000/svg" xmlns:xlink="http://www.w3.org/1999/xlink" x="0px" y="0px" width="300px" height="171.051px"
	 viewBox="0 0 300 171.051" enable-background="new 0 0 300 171.051" xml:space="preserve">
<g>
	<path d="M18.614,0.001h262.775C291.625,0.001,300,8.376,300,18.615v133.825c0,10.238-8.375,18.613-18.611,18.613H18.614
		C8.375,171.053,0,162.678,0,152.439V18.615C0,8.376,8.375,0.001,18.614,0.001"/>
	<path fill="#FFFFFF" d="M18.614,4.799h262.775c7.598,0,13.813,6.217,13.813,13.816v133.825c0,7.6-6.218,13.816-13.813,13.816
		H18.614c-7.6,0-13.816-6.218-13.816-13.816V18.615C4.797,11.015,11.014,4.799,18.614,4.799 M9.595,18.615v133.825
		c0,4.959,4.059,9.019,9.019,9.019h262.775c4.959,0,9.018-4.06,9.018-9.019V18.615c0-4.961-4.059-9.019-9.018-9.019H18.614
		C13.653,9.596,9.595,13.654,9.595,18.615z"/>
	<path fill="#FFFFFF" d="M176.232,36.851L176.232,36.851l0.002,29.573h8.354V36.851H176.232 M110.531,36.81L110.531,36.81v29.614
		h8.426V43.938l6.53,0.002c2.162,0,3.702,0.539,4.744,1.65c1.32,1.406,1.86,3.677,1.86,7.83v13.003h8.164V50.062
		c0-11.678-7.442-13.252-14.724-13.252H110.531z M189.682,36.851L189.682,36.851v29.573h13.545c7.217,0,9.573-1.2,12.121-3.892
		c1.799-1.889,2.965-6.036,2.965-10.569c0-4.158-0.984-7.864-2.703-10.174c-3.096-4.129-7.555-4.938-14.207-4.938H189.682z
		 M197.964,43.291L197.964,43.291h3.591c5.211,0,8.579,2.339,8.579,8.408c0,6.072-3.368,8.411-8.579,8.411h-3.591V43.291z
		 M164.191,36.851L164.191,36.851l-6.973,23.437l-6.677-23.435l-9.015-0.002l9.538,29.573h12.037l9.612-29.573H164.191z
		 M222.195,66.424L222.195,66.424h8.355V36.853l-8.355-0.002V66.424z M245.611,36.863L245.611,36.863l-11.666,29.549h8.236
		l1.846-5.222h13.803l1.746,5.222h8.939L256.768,36.86L245.611,36.863z M251.031,42.253l5.06,13.845h-10.278L251.031,42.253z"/>
	<path fill="#78B800" d="M38.378,47.761c0,0,6.1-9,18.28-9.931v-3.266c-13.49,1.084-25.173,12.51-25.173,12.51
		s6.617,19.128,25.173,20.879v-3.47C43.041,62.77,38.378,47.761,38.378,47.761"/>
	<path fill="#78B800" d="M56.658,57.58v3.179C46.366,58.925,43.51,48.225,43.51,48.225s4.942-5.474,13.148-6.362v3.489
		c-0.005,0-0.01-0.002-0.015-0.002c-4.307-0.517-7.672,3.507-7.672,3.507S50.856,55.631,56.658,57.58"/>
	<path fill="#78B800" d="M56.658,28.542v6.022c0.397-0.03,0.793-0.056,1.191-0.069c15.338-0.517,25.332,12.579,25.332,12.579
		S71.703,61.031,59.744,61.031c-1.096,0-2.122-0.101-3.086-0.272v3.724c0.824,0.105,1.679,0.166,2.571,0.166
		c11.127,0,19.176-5.683,26.968-12.408c1.291,1.035,6.58,3.551,7.667,4.653c-7.41,6.202-24.676,11.204-34.465,11.204
		c-0.944,0-1.85-0.057-2.742-0.145v5.234h42.296V28.542H56.658"/>
	<path fill="#78B800" d="M56.658,41.863V37.83c0.393-0.028,0.788-0.048,1.191-0.062c11.029-0.346,18.266,9.479,18.266,9.479
		S68.299,58.101,59.92,58.101c-1.207,0-2.289-0.194-3.262-0.521V45.352c4.294,0.519,5.158,2.415,7.74,6.719l5.742-4.841
		c0,0-4.19-5.497-11.257-5.497C58.116,41.732,57.379,41.786,56.658,41.863"/>
	<path fill="#FFFFFF" d="M218.148,127.592h-11.693l5.945-17.111L218.148,127.592 M232.948,143.646L215.77,96.607h-7.201
		l-17.11,47.039h9.579l2.841-8.324h16.715l2.776,8.324H232.948z M178.707,119.93c0.011,2.366-0.033,4.348-0.133,5.967
		s-0.286,2.963-0.572,4.031c-0.286,1.057-0.716,1.926-1.277,2.619c-0.781,0.959-1.729,1.686-2.841,2.169
		c-1.11,0.496-2.456,0.738-4.03,0.738h-6.937v-30.655h6.937c1.574,0,2.92,0.241,4.03,0.737c1.112,0.485,2.06,1.212,2.841,2.17
		c0.43,0.519,0.771,1.122,1.037,1.795c0.262,0.683,0.461,1.485,0.604,2.433c0.132,0.938,0.23,2.062,0.275,3.369
		C178.686,116.615,178.707,118.156,178.707,119.93z M187.891,119.93c0.021-1.773,0.021-3.502,0-5.188
		c-0.012-1.685-0.145-3.313-0.396-4.898c-0.242-1.587-0.705-3.104-1.389-4.571c-0.672-1.463-1.662-2.852-2.974-4.172
		c-1.573-1.541-3.413-2.688-5.538-3.414c-2.125-0.727-4.416-1.09-6.882-1.078h-16.979v47.039h16.979
		c2.466,0.012,4.757-0.353,6.882-1.078c2.125-0.727,3.965-1.873,5.538-3.414c1.312-1.321,2.302-2.74,2.974-4.239
		c0.684-1.496,1.146-3.071,1.389-4.7c0.252-1.643,0.385-3.314,0.396-5.045C187.912,123.452,187.912,121.7,187.891,119.93z
		 M143.492,127.527v-30.92h-9.117v30.588c-0.011,1.818-0.353,3.359-1.024,4.646c-0.671,1.301-1.619,2.28-2.841,2.973
		c-1.222,0.685-2.665,1.025-4.327,1.037c-1.663-0.012-3.094-0.354-4.306-1.037c-1.211-0.691-2.157-1.672-2.818-2.973
		c-0.66-1.287-0.991-2.828-1.001-4.646V96.607h-9.184v30.92c0.011,2.5,0.463,4.768,1.354,6.793c0.881,2.017,2.104,3.755,3.689,5.209
		c1.575,1.441,3.403,2.555,5.495,3.337c2.092,0.78,4.349,1.167,6.772,1.177c2.423-0.01,4.68-0.396,6.772-1.177
		c2.093-0.782,3.919-1.896,5.505-3.337c1.576-1.454,2.798-3.192,3.689-5.209C143.031,132.294,143.481,130.027,143.492,127.527z
		 M101.672,129.178h-9.316c-0.33,1.354-0.836,2.521-1.508,3.523c-0.682,0.99-1.553,1.761-2.62,2.313
		c-1.058,0.551-2.324,0.826-3.799,0.838c-1.255,0-2.378-0.199-3.358-0.605c-0.991-0.396-1.828-1.014-2.521-1.838
		c-0.474-0.496-0.87-1.047-1.167-1.653c-0.309-0.616-0.54-1.397-0.706-2.334c-0.165-0.946-0.286-2.169-0.353-3.655
		c-0.066-1.498-0.088-3.381-0.088-5.638c0-2.259,0.022-4.142,0.088-5.638c0.066-1.486,0.188-2.711,0.353-3.656
		c0.166-0.945,0.397-1.718,0.706-2.335c0.296-0.604,0.693-1.155,1.167-1.649c0.693-0.826,1.531-1.443,2.521-1.842
		c0.98-0.406,2.103-0.604,3.358-0.604c1.475,0.011,2.741,0.285,3.799,0.836c1.067,0.539,1.938,1.322,2.62,2.313
		c0.672,1.002,1.179,2.17,1.508,3.523h9.316c-0.551-3.204-1.608-5.902-3.182-8.115c-1.575-2.201-3.568-3.889-5.969-5.021
		c-2.411-1.145-5.131-1.729-8.16-1.729c-5.021,0-9.249,1.719-12.685,5.152c-1.024,1.023-1.85,2.115-2.489,3.281
		c-0.627,1.179-1.079,2.436-1.343,3.787c-0.528,2.645-0.792,6.541-0.792,11.695c0,5.152,0.265,9.051,0.792,11.693
		c0.264,1.322,0.716,2.576,1.343,3.755c0.639,1.19,1.465,2.29,2.489,3.313c3.436,3.437,7.664,5.152,12.685,5.152
		c3.017-0.01,5.727-0.582,8.126-1.729c2.412-1.146,4.405-2.817,5.99-5.021C100.064,135.079,101.121,132.382,101.672,129.178z"/>
</g>
</svg>
